<?xml version="1.0" standalone="no"?>
<!DOCTYPE svg PUBLIC "-//W3C//DTD SVG 20010904//EN"
 "http://www.w3.org/TR/2001/REC-SVG-20010904/DTD/svg10.dtd">
<svg version="1.0" xmlns="http://www.w3.org/2000/svg"
 width="700.000000pt" height="700.000000pt" viewBox="0 0 700.000000 700.000000"
 preserveAspectRatio="xMidYMid meet">
<metadata>
Created by potrace 1.11, written by Peter Selinger 2001-2013
</metadata>
<g transform="translate(0.000000,700.000000) scale(0.100000,-0.100000)"
fill="#000000" stroke="none">
<path d="M3416 6926 c-81 -30 -147 -123 -147 -208 0 -79 19 -126 79 -185 l37
-38 0 -1175 -1 -1175 -117 -2 -117 -1 0 567 c0 631 0 628 -66 692 -19 19 -144
99 -276 179 l-242 145 0 98 c-1 95 0 97 27 117 70 53 104 157 79 245 -18 65
-51 108 -110 142 -66 39 -159 39 -225 -1 -136 -79 -160 -251 -50 -364 l46 -47
1 -125 c3 -189 15 -206 251 -348 197 -119 180 -109 259 -155 36 -21 67 -43 68
-50 0 -7 2 -256 3 -553 l1 -542 -70 -5 c-82 -7 -113 -11 -141 -20 -21 -7 -21
-5 -21 350 -1 388 -2 393 -58 460 -16 19 -200 136 -456 290 -236 142 -476 286
-532 320 -57 34 -107 64 -113 66 -5 2 -9 133 -10 333 l-1 329 42 40 c116 111
95 291 -43 372 -90 53 -221 31 -287 -48 -83 -98 -73 -251 22 -329 l36 -30 1
-362 0 -363 28 -47 c15 -25 38 -55 51 -65 18 -15 590 -362 770 -468 18 -11 97
-58 175 -105 l141 -84 0 -394 0 -395 -50 -49 c-54 -53 -115 -139 -145 -203
-23 -49 -38 -100 -120 -390 -36 -126 -74 -259 -85 -295 -10 -36 -26 -91 -35
-123 -9 -32 -21 -60 -28 -62 -7 -2 -77 -6 -157 -7 -125 -3 -151 -7 -187 -26
-162 -85 -167 -308 -10 -406 42 -26 61 -30 145 -36 63 -4 90 -9 77 -14 -191
-76 -302 -201 -332 -374 -12 -72 -9 -784 4 -835 21 -86 97 -156 186 -172 l37
-7 0 -313 c0 -254 3 -319 15 -348 l15 -36 -845 0 c-931 0 -887 3 -921 -62 -28
-55 -2 -133 52 -158 20 -9 849 -11 3436 -11 3284 -1 3411 0 3442 18 45 26 65
86 45 138 -9 23 -27 45 -46 57 -30 17 -73 18 -876 18 l-845 0 14 46 c11 35 14
121 14 352 l0 306 36 2 c76 4 164 81 188 165 13 48 15 756 2 843 -4 28 -23 83
-42 122 -55 115 -143 191 -289 249 -13 5 10 10 70 14 50 4 101 10 115 15 80
25 150 129 150 222 0 112 -86 214 -192 227 -18 3 -89 5 -158 5 l-126 1 -118
413 c-64 226 -130 438 -145 469 -38 76 -95 155 -148 202 l-43 40 0 398 0 398
28 13 c15 6 29 14 32 18 3 4 21 15 40 26 19 10 54 31 77 46 24 15 45 27 48 27
4 0 25 12 48 28 23 15 51 32 62 39 11 6 89 53 174 105 85 51 159 95 165 97 5
2 15 8 21 13 5 5 93 59 195 119 102 61 195 120 207 131 13 12 33 42 45 67 22
45 23 54 24 401 l0 356 45 44 c85 86 94 218 19 313 -84 106 -267 110 -354 6
-84 -100 -73 -252 23 -329 l36 -29 -1 -331 c0 -276 -3 -333 -15 -340 -8 -5
-132 -80 -277 -167 -144 -87 -279 -168 -300 -180 -20 -13 -64 -39 -97 -58 -33
-20 -67 -40 -75 -45 -40 -26 -240 -145 -274 -164 -51 -28 -104 -90 -118 -140
-7 -27 -11 -161 -12 -389 0 -308 -2 -347 -16 -343 -60 18 -92 23 -166 25 l-50
1 0 550 c1 352 5 552 11 558 6 5 114 71 240 146 127 76 243 150 258 164 58 54
70 95 72 233 l2 125 46 48 c115 118 83 295 -67 373 -18 10 -57 17 -96 17 -54
1 -73 -4 -112 -27 -81 -47 -119 -114 -119 -208 0 -62 21 -109 71 -159 l42 -42
0 -77 c0 -42 -1 -85 -1 -97 -1 -17 -53 -53 -244 -167 -256 -153 -307 -195
-326 -264 -7 -25 -11 -236 -11 -605 l0 -567 -117 2 -117 2 0 1175 -1 1175 46
48 c26 27 51 66 58 86 46 154 -48 297 -201 307 -40 3 -77 -1 -102 -10z m1250
-6228 c-1 -273 1 -328 19 -385 l7 -22 -1191 0 c-788 0 -1191 4 -1191 10 0 6 5
20 11 32 8 14 13 123 14 337 1 173 3 316 4 318 0 1 525 2 1164 2 l1164 0 -1
-292z"/>
</g>
</svg>
