<?xml version="1.0" encoding="iso-8859-1"?>
<!-- Generator: Adobe Illustrator 19.0.0, SVG Export Plug-In . SVG Version: 6.00 Build 0)  -->
<svg version="1.1" id="Capa_1" xmlns="http://www.w3.org/2000/svg" xmlns:xlink="http://www.w3.org/1999/xlink" x="0px" y="0px"
	 viewBox="0 0 426.667 426.667" style="enable-background:new 0 0 426.667 426.667;" xml:space="preserve">
<path style="fill:#44C4A1;" d="M379.567,182.386h-35.276c-15.828-65.832-79.182-109.633-150.672-109.633
	c-76.896,0-136.118,53.996-144.013,128.256c-20.078,3.858-49.53,28.156-49.53,62.887v41.373h400.063v-43.028h26.478v-36.516
	C426.617,199.877,405.41,181.912,379.567,182.386z"/>
<rect x="0.085" y="261.174" style="fill:#3EA69B;" width="425.984" height="44.109"/>
<path style="fill:#D5D6DB;" d="M82.739,194.667c0-43.157,49.612-96.263,110.812-96.263s110.812,53.106,110.812,96.263H82.739z"/>
<path style="fill:#EBF0F3;" d="M304.362,194.667c0-43.157-49.612-96.263-110.812-96.263v96.263H304.362z"/>
<circle style="fill:#2F4859;" cx="105.357" cy="305.248" r="48.666"/>
<circle style="fill:#D5D6DB;" cx="105.357" cy="305.248" r="31.62"/>
<circle style="fill:#3A556A;" cx="105.357" cy="305.248" r="13.641"/>
<rect x="193.57" y="202.123" style="fill:#64798A;" width="45.235" height="15.445"/>
<rect x="193.57" y="202.093" style="fill:#3A556A;" width="45.235" height="6.046"/>
<rect x="82.756" y="202.123" style="fill:#64798A;" width="45.235" height="15.445"/>
<rect x="82.756" y="202.093" style="fill:#3A556A;" width="45.235" height="6.046"/>
<path style="fill:#D5D6DB;" d="M402.309,186.718v38.469l24.308,0.538C426.617,225.726,428.917,200.249,402.309,186.718z"/>
<path style="fill:#E56353;" d="M0.076,261.162h19.088v-42.385C-2.269,239.348,0.076,261.162,0.076,261.162z"/>
<circle style="fill:#2F4859;" cx="362.24" cy="305.248" r="48.666"/>
<circle style="fill:#D5D6DB;" cx="362.24" cy="305.248" r="31.62"/>
<circle style="fill:#3A556A;" cx="362.24" cy="305.248" r="13.641"/>
<g>
</g>
<g>
</g>
<g>
</g>
<g>
</g>
<g>
</g>
<g>
</g>
<g>
</g>
<g>
</g>
<g>
</g>
<g>
</g>
<g>
</g>
<g>
</g>
<g>
</g>
<g>
</g>
<g>
</g>
</svg>
