<svg height="512" viewBox="0 0 60 59" width="512" xmlns="http://www.w3.org/2000/svg"><g id="006---AI-Car" fill="none"><g fill="#f0c419"><path id="Shape" d="m22 26.84c-.5522847 0-1-.4477153-1-1v-7.27l-9.024-5.423c-.6105264-.355079-.9832389-1.0107627-.976-1.717v-5.43c0-.55228475.4477153-1 1-1s1 .44771525 1 1v5.43l9.024 5.423c.6105264.355079.9832389 1.0107627.976 1.717v7.27c0 .5522847-.4477153 1-1 1z"/><path id="Shape" d="m30 26c-.5522847 0-1-.4477153-1-1v-21c0-.55228475.4477153-1 1-1s1 .44771525 1 1v21c0 .5522847-.4477153 1-1 1z"/><path id="Shape" d="m38 26.84c-.5522847 0-1-.4477153-1-1v-7.27c-.0059833-.7111342.3715836-1.3703475.988-1.725l9.012-5.412v-5.433c0-.55228475.4477153-1 1-1s1 .44771525 1 1v5.43c.0059833.7111342-.3715836 1.3703475-.988 1.725l-9.007 5.412-.005 7.273c0 .5522847-.4477153 1-1 1z"/></g><path id="Shape" d="m26 26c-.5522847 0-1-.4477153-1-1v-10.43l-4.025-2.423c-.6099876-.3554861-.9822351-1.0110235-.975-1.717v-1.43c0-.55228475.4477153-1 1-1s1 .44771525 1 1v1.43l4.025 2.423c.6099876.3554861.9822351 1.0110235.975 1.717v10.43c0 .5522847-.4477153 1-1 1z" fill="#f3d55b"/><path id="Shape" d="m34 26c-.5522847 0-1-.4477153-1-1v-10.43c-.0059833-.7111342.3715836-1.3703475.988-1.725l4.006-2.412.006-1.433c0-.55228475.4477153-1 1-1s1 .44771525 1 1v1.43c.0059833.7111342-.3715836 1.3703475-.988 1.725l-4.006 2.412-.006 10.433c0 .5522847-.4477153 1-1 1z" fill="#f3d55b"/><path id="Shape" d="m59 59h-58c-.55228475 0-1-.4477153-1-1s.44771525-1 1-1h58c.5522847 0 1 .4477153 1 1s-.4477153 1-1 1z" fill="#56595e"/><path id="Shape" d="m42 35.5v-.5h3c.8063114.0033854 1.5317303.4906258 1.8398346 1.2357575s.138627 1.6024026-.4298346 2.1742425c-.723.743-1.39.59-3.41.59h-28c-1.1045695 0-2-.8954305-2-2s.8954305-2 2-2h3v.5z" fill="#3b97d3"/><path id="Shape" d="m37.95 25.81c-3.24.63-18.39 4.09-20.31 13.19h-.64l2.96-10.37c.6151221-2.1467787 2.5768349-3.6272397 4.81-3.63h10.46c.9664027-.0020358 1.9121527.279603 2.72.81z" fill="#b0d3f0"/><path id="Shape" d="m43 39h-25.36c1.92-9.1 17.07-12.56 20.31-13.19 1.0141216.657013 1.7564348 1.658603 2.09 2.82z" fill="#90bae1"/><path id="Shape" d="m43 40h-26c-.3137636-.0001394-.6092705-.1475355-.7981255-.3980976s-.2491595-.5752362-.1628745-.8769024l2.961-10.373c.74358-2.571399 3.0942591-4.3440824 5.771-4.352h10.458c2.6767409.0079176 5.02742 1.780601 5.771 4.352l2.963 10.373c.0863822.3020046.0258414.6270473-.1634762.8777015-.1893176.2506541-.4854085.3977873-.7995238.3972985zm-26.125 3.062 26.125-.25-3.925-13.912c-.496263-1.7131325-2.062446-2.8940817-3.846-2.9h-10.458c-1.783554.0059183-3.349737 1.1868675-3.846 2.9z" fill="#285680"/><path id="Shape" d="m17 39h26c2.209139 0 4 1.790861 4 4v6c0 1.1045695-.8954305 2-2 2h-30c-1.1045695 0-2-.8954305-2-2v-6c0-2.209139 1.790861-4 4-4z" fill="#2980ba"/><path id="Shape" d="m15 51h5v5c0 1.1045695-.8954305 2-2 2h-1c-1.1045695 0-2-.8954305-2-2z" fill="#393f4a"/><path id="Shape" d="m40 51h5v5c0 1.1045695-.8954305 2-2 2h-1c-1.1045695 0-2-.8954305-2-2z" fill="#393f4a"/><path id="Shape" d="m23 47h-5c-.5522847 0-1-.4477153-1-1v-1.847c.0000028-.2898154.1257384-.565375.3446411-.7553081.2189027-.189933.5094389-.2755559.7963589-.2346919l5 .714c.4928351.070191.8589952.4921916.859.99v1.133c0 .5522847-.4477153 1-1 1z" fill="#9fc9d3"/><path id="Shape" d="m37 47h5c.5522847 0 1-.4477153 1-1v-1.847c-.0000028-.2898154-.1257384-.565375-.3446411-.7553081-.2189027-.189933-.5094389-.2755559-.7963589-.2346919l-5 .714c-.4928351.070191-.8589952.4921916-.859.99v1.133c0 .5522847.4477153 1 1 1z" fill="#9fc9d3"/><path id="Shape" d="m32 44h-4c-.5522847 0-1-.4477153-1-1s.4477153-1 1-1h4c.5522847 0 1 .4477153 1 1s-.4477153 1-1 1z" fill="#d1d4d1"/><path id="Shape" d="m32 48h-4c-.5522847 0-1-.4477153-1-1s.4477153-1 1-1h4c.5522847 0 1 .4477153 1 1s-.4477153 1-1 1z" fill="#d1d4d1"/><path id="Shape" d="m23 32c-.4043959-.0000863-.7689341-.2437275-.923678-.6173454-.1547439-.373618-.0692299-.8036603.216678-1.0896546l2-2c.3923789-.3789722 1.0160848-.3735524 1.4018186.0121814s.3911536 1.0094397.0121814 1.4018186c-2.18 2.18-2.168 2.293-2.707 2.293z" fill="#fff"/><path id="Shape" d="m25 36c-.4043959-.0000863-.7689341-.2437275-.923678-.6173454-.1547439-.373618-.0692299-.8036603.216678-1.0896546l6-6c.3923789-.3789722 1.0160848-.3735524 1.4018186.0121814s.3911536 1.0094397.0121814 1.4018186l-6 6c-.1874927.1875494-.4418052.2929434-.707.293z" fill="#fff"/><circle id="Oval" cx="12" cy="4" fill="#b19046" r="2"/><circle id="Oval" cx="21" cy="7" fill="#e4c05c" r="2"/><circle id="Oval" cx="39" cy="7" fill="#e4c05c" r="2"/><circle id="Oval" cx="48" cy="4" fill="#b19046" r="2"/><circle id="Oval" cx="30" cy="2" fill="#b19046" r="2"/></g></svg>